<?xml version="1.0" standalone="no"?>
<!DOCTYPE svg PUBLIC "-//W3C//DTD SVG 20010904//EN"
 "http://www.w3.org/TR/2001/REC-SVG-20010904/DTD/svg10.dtd">
<svg version="1.0" xmlns="http://www.w3.org/2000/svg"
 width="320.000000pt" height="320.000000pt" viewBox="0 0 320.000000 320.000000"
 preserveAspectRatio="xMidYMid meet">
<metadata>
Created by potrace 1.11, written by Peter Selinger 2001-2013
</metadata>
<g transform="translate(0.000000,320.000000) scale(0.100000,-0.100000)"
fill="#000000" stroke="none">
<path d="M1056 3099 c-44 -11 -87 -25 -95 -33 -9 -7 -24 -16 -33 -19 -10 -4
-18 -15 -18 -26 0 -13 -5 -18 -14 -15 -9 3 -19 -9 -30 -35 -9 -24 -23 -41 -32
-41 -8 0 -36 -14 -62 -31 -58 -39 -232 -209 -232 -226 0 -7 -7 -13 -16 -13
-10 0 -14 -7 -12 -20 2 -10 -1 -18 -7 -17 -5 1 -9 8 -9 15 2 17 -13 15 -20 -4
-3 -8 -10 -12 -16 -9 -5 3 -11 1 -11 -4 -1 -6 -2 -16 -3 -22 0 -7 -10 -15 -21
-19 -19 -7 -19 -7 3 -14 30 -10 28 -21 -9 -37 -30 -12 -30 -13 -13 -26 15 -11
16 -17 6 -33 -15 -25 -15 -53 -1 -67 8 -8 4 -16 -15 -28 -15 -10 -26 -27 -26
-40 0 -25 -43 -77 -61 -73 -7 2 -19 -10 -27 -26 -9 -19 -17 -24 -22 -17 -7 12
-82 10 -145 -4 -19 -4 -41 -1 -60 9 -16 9 -36 16 -42 16 -10 0 -13 -105 -13
-494 0 -463 1 -495 18 -500 76 -21 192 -31 372 -31 186 0 213 2 290 24 130 37
140 37 140 11 0 -21 3 -22 51 -18 l51 5 -8 -71 c-11 -90 -11 -200 -1 -249 6
-30 5 -37 -4 -31 -8 4 -10 3 -5 -5 4 -6 11 -9 16 -6 9 5 20 -28 20 -62 0 -16
-6 -23 -19 -23 -11 0 -23 -4 -26 -10 -7 -11 39 -24 59 -17 19 8 26 -14 33 -98
4 -38 12 -74 18 -80 7 -5 27 -84 44 -175 25 -130 31 -191 31 -287 l0 -123 650
0 c441 0 650 3 650 10 0 6 -20 61 -44 123 -85 215 -90 233 -88 342 1 89 4 102
23 117 18 15 19 19 5 24 -26 10 -22 104 6 140 13 15 17 25 10 20 -15 -9 -16
18 -3 60 5 16 13 56 17 89 7 57 8 58 15 26 12 -58 15 -306 3 -304 -6 1 -11 -4
-11 -12 0 -10 5 -11 19 -4 10 5 18 6 18 2 0 -4 5 -35 10 -68 5 -33 15 -108 21
-167 6 -59 23 -172 38 -250 l27 -143 157 -3 156 -3 -5 53 c-3 29 -14 100 -24
158 -37 212 -43 288 -45 575 -1 192 -6 302 -14 325 -6 19 -18 96 -26 170 -14
131 -37 229 -88 374 -27 77 -68 126 -132 158 -22 12 -55 31 -75 43 -27 18 -55
24 -120 28 -111 7 -247 40 -318 78 -79 42 -126 91 -162 167 l-31 66 19 60 c12
35 18 77 16 100 -6 61 -35 153 -54 174 -28 30 -69 99 -63 106 3 3 1 12 -5 19
-7 8 -9 16 -6 19 3 3 -7 8 -21 12 -16 4 -25 13 -25 26 0 11 -5 20 -11 20 -5 0
-8 4 -5 9 3 5 -10 23 -30 41 -27 23 -44 31 -64 28 -21 -3 -27 -1 -23 9 3 8 12
12 20 9 8 -3 12 -2 9 3 -3 5 2 12 11 15 13 5 33 -10 75 -56 31 -35 57 -59 58
-54 0 4 -20 31 -45 58 -25 28 -52 64 -60 82 -13 26 -50 66 -178 193 -26 25
-116 53 -166 52 -20 -1 -72 -10 -115 -20z m286 -79 c18 0 119 -97 141 -136 14
-25 -12 -15 -36 13 -12 15 -33 38 -47 52 -13 15 -24 30 -22 34 1 5 -2 6 -7 3
-11 -7 -80 25 -81 38 0 4 7 5 16 2 9 -3 25 -6 36 -6z m-242 -83 c8 -7 17 -21
18 -32 2 -11 10 -31 17 -45 7 -14 16 -33 19 -44 4 -13 10 -15 19 -9 6 5 45 16
85 23 39 7 72 17 72 22 0 4 7 8 15 8 8 0 15 6 15 13 0 8 3 8 9 -2 5 -8 16 -11
25 -8 23 9 19 -3 -14 -47 -27 -35 -30 -47 -30 -110 l0 -71 43 -30 c23 -16 45
-30 48 -30 12 0 79 -40 79 -47 0 -5 -8 -8 -17 -8 -9 0 -25 -7 -35 -17 -10 -9
-18 -11 -18 -6 0 6 -6 11 -12 10 -46 -1 -58 4 -64 31 -7 26 -51 94 -66 100 -5
2 -8 10 -8 18 0 8 -7 14 -15 14 -8 0 -15 5 -15 11 0 14 -119 3 -134 -12 -6 -5
-19 -9 -30 -8 -20 0 -20 1 -2 8 19 7 19 8 -1 13 -21 6 -23 25 -10 91 1 6 -9
13 -23 15 -14 2 -30 8 -36 13 -17 14 -11 128 6 139 20 13 42 12 60 -3z m-542
-325 c6 -18 -15 -14 -22 4 -4 10 -1 14 6 12 6 -2 14 -10 16 -16z m732 -132 c0
-9 5 -21 11 -27 7 -7 9 -25 5 -48 -6 -28 -15 -39 -41 -52 -31 -15 -36 -15 -68
1 -19 9 -39 16 -44 16 -5 0 -16 9 -26 20 -16 19 -16 20 2 20 10 0 38 15 62 34
23 19 47 32 51 30 4 -3 13 -2 19 2 8 4 7 9 -2 15 -10 6 -7 8 9 6 13 -1 22 -8
22 -17z m-785 -128 c-7 -33 -41 -79 -51 -69 -8 8 14 66 34 90 20 22 25 16 17
-21z m-45 11 c-5 -10 -17 -36 -26 -58 -15 -38 -16 -39 -25 -17 -6 16 -4 28 9
43 40 49 61 64 42 32z m-196 -177 c-3 -8 -12 -17 -20 -20 -11 -4 -12 -2 -1 14
14 23 29 27 21 6z m967 -106 c69 -79 109 -140 109 -166 0 -12 -13 -36 -29 -53
-23 -25 -37 -31 -69 -31 -40 0 -41 0 -36 33 4 24 -1 42 -20 70 -14 21 -26 40
-26 42 0 3 -20 34 -45 70 -46 65 -46 65 -20 65 17 0 29 8 37 25 14 32 30 23
99 -55z m-1016 42 c-1 -25 -15 -43 -26 -37 -5 4 -2 17 7 31 19 29 21 29 19 6z
m-70 -103 c-9 -17 -19 -29 -22 -26 -5 5 25 57 33 57 3 0 -3 -14 -11 -31z m-25
-43 c0 -3 -4 -8 -10 -11 -5 -3 -10 -1 -10 4 0 6 5 11 10 11 6 0 10 -2 10 -4z
m-74 -92 c-9 -8 -16 -20 -16 -26 0 -6 -3 -9 -6 -6 -8 9 14 48 27 48 6 0 3 -7
-5 -16z m1092 -70 c-11 -11 -21 -12 -41 -5 -15 6 -27 15 -27 20 0 11 41 37 53
33 4 -1 7 6 8 16 1 9 6 2 12 -16 8 -26 7 -36 -5 -48z m-672 35 c3 -6 16 -8 29
-5 27 7 45 -16 65 -86 9 -31 17 -43 22 -35 6 9 12 7 23 -7 8 -11 15 -17 15
-12 0 4 12 -5 26 -19 29 -29 28 -33 -7 -39 -13 -2 -25 -5 -26 -5 -8 -3 -13 0
-14 7 -1 14 -33 26 -37 14 -2 -7 -8 -10 -13 -6 -5 3 -23 2 -40 -1 -24 -5 -30
-11 -26 -26 7 -27 -2 -30 -109 -36 -103 -5 -124 2 -124 42 0 12 6 28 14 35 8
6 12 18 9 26 -3 8 2 35 12 60 15 41 20 45 43 41 25 -5 92 28 107 53 8 13 22
13 31 -1z m568 -35 c4 -10 1 -14 -6 -12 -15 5 -23 28 -10 28 5 0 13 -7 16 -16z
m-419 -54 c3 -5 1 -10 -4 -10 -6 0 -11 5 -11 10 0 6 2 10 4 10 3 0 8 -4 11
-10z m50 -30 c8 -13 -5 -13 -25 0 -13 8 -13 10 2 10 9 0 20 -4 23 -10z m266
-440 c-25 -22 -41 -26 -41 -10 0 11 30 29 50 29 10 0 8 -6 -9 -19z m1134 -620
c12 10 15 10 15 -4 0 -11 -9 -16 -30 -16 -21 0 -30 5 -30 16 0 14 3 14 15 4
12 -10 18 -10 30 0z m65 0 c0 -5 -7 -10 -16 -10 -8 0 -12 5 -9 10 3 6 10 10
16 10 5 0 9 -4 9 -10z m80 0 c0 -5 -7 -10 -15 -10 -8 0 -15 5 -15 10 0 6 7 10
15 10 8 0 15 -4 15 -10z"/>
<path d="M1321 2674 c0 -11 3 -14 6 -6 3 7 2 16 -1 19 -3 4 -6 -2 -5 -13z"/>
<path d="M1210 2440 c-8 -5 -12 -11 -10 -14 3 -2 14 2 24 10 22 15 10 19 -14
4z"/>
<path d="M2370 2779 c0 -11 5 -17 10 -14 6 3 10 13 10 21 0 8 -4 14 -10 14 -5
0 -10 -9 -10 -21z"/>
<path d="M163 2683 c-30 -6 -29 -21 1 -33 13 -5 27 -14 31 -19 11 -18 25 -12
37 15 17 38 -5 49 -69 37z"/>
<path d="M3164 2579 c-19 -18 -20 -25 -12 -67 10 -48 23 -72 39 -72 5 0 9 36
9 80 0 44 -3 80 -7 79 -5 0 -18 -10 -29 -20z"/>
<path d="M2665 2490 c-3 -5 -1 -10 4 -10 6 0 11 5 11 10 0 6 -2 10 -4 10 -3 0
-8 -4 -11 -10z"/>
<path d="M2576 2428 c-7 -18 -17 -46 -20 -63 l-7 -30 43 40 c23 22 44 41 46
42 2 1 -1 11 -8 22 -16 31 -39 26 -54 -11z"/>
<path d="M0 2418 c1 -43 24 -75 43 -60 10 8 12 24 8 49 -5 29 -11 39 -29 41
-19 3 -22 -1 -22 -30z"/>
<path d="M195 2438 c-11 -27 -1 -73 15 -73 20 0 24 45 6 70 -13 18 -15 18 -21
3z"/>
<path d="M3035 2440 c4 -6 11 -8 16 -5 14 9 11 15 -7 15 -8 0 -12 -5 -9 -10z"/>
<path d="M2665 2380 c-4 -6 6 -10 24 -10 16 0 33 5 36 10 4 6 -6 10 -24 10
-16 0 -33 -4 -36 -10z"/>
<path d="M3182 2357 c-9 -11 -10 -17 -2 -22 15 -9 23 -1 18 21 -3 15 -4 16
-16 1z"/>
<path d="M3087 2344 c-10 -11 3 -24 22 -24 10 0 24 7 31 15 11 13 8 15 -17 15
-16 0 -33 -3 -36 -6z"/>
<path d="M1944 2316 c-4 -10 -2 -22 4 -28 8 -8 13 -7 18 6 4 10 2 22 -4 28 -8
8 -13 7 -18 -6z"/>
<path d="M2468 2263 c7 -3 16 -2 19 1 4 3 -2 6 -13 5 -11 0 -14 -3 -6 -6z"/>
<path d="M3172 2203 c-22 -15 -22 -17 -5 -35 10 -11 20 -43 24 -71 5 -45 6
-40 8 36 0 48 0 87 -1 86 -2 0 -13 -7 -26 -16z"/>
<path d="M2358 2183 c7 -3 16 -2 19 1 4 3 -2 6 -13 5 -11 0 -14 -3 -6 -6z"/>
<path d="M3023 2170 c-36 -15 -29 -40 11 -40 44 0 66 9 66 25 0 7 6 16 13 18
6 3 -6 5 -28 6 -22 0 -50 -4 -62 -9z"/>
<path d="M2195 2129 c-4 -6 -5 -13 -2 -16 8 -8 67 7 67 18 0 13 -57 11 -65 -2z"/>
<path d="M2800 2109 c-36 -20 -80 -34 -128 -40 -67 -9 -76 -8 -108 11 l-34 22
-43 -21 c-24 -12 -56 -21 -71 -21 -30 0 -86 -26 -86 -39 0 -15 30 -21 50 -11
24 13 133 13 146 0 6 -6 19 -5 36 4 14 8 61 21 104 30 75 15 80 15 104 -3 18
-13 38 -17 64 -15 21 2 40 5 42 6 1 2 6 27 10 56 6 47 5 52 -12 51 -11 0 -44
-14 -74 -30z"/>
<path d="M2030 2004 c-14 -6 -38 -16 -55 -21 -37 -10 -35 -28 3 -27 91 4 193
17 232 31 25 8 51 17 59 19 34 11 -2 12 -88 4 -51 -6 -100 -6 -109 -2 -10 6
-27 4 -42 -4z"/>
<path d="M3139 1947 c-8 -7 -18 -20 -22 -29 -5 -16 0 -18 39 -18 37 0 45 3 42
16 -5 27 -40 45 -59 31z"/>
<path d="M2881 1906 c-8 -10 -9 -21 -3 -33 5 -10 7 -24 5 -30 -6 -16 14 -16
56 -2 26 9 30 15 25 33 -3 11 -11 27 -16 34 -14 16 -53 15 -67 -2z"/>
<path d="M906 821 c-4 -7 -5 -15 -2 -18 9 -9 19 4 14 18 -4 11 -6 11 -12 0z"/>
</g>
</svg>
